<?xml version="1.0" encoding="UTF-8" standalone="no"?>
<svg
   viewBox="0 0 100 100"
   preserveAspectRatio="xMidYMid meet"
   version="1.1"
   id="svg1"
   sodipodi:docname="favicon.svg"
   inkscape:export-filename="favicon-512x512.png"
   inkscape:export-xdpi="491.51999"
   inkscape:export-ydpi="491.51999"
   inkscape:version="1.4.2 (f4327f4, 2025-05-13)"
   xmlns:inkscape="http://www.inkscape.org/namespaces/inkscape"
   xmlns:sodipodi="http://sodipodi.sourceforge.net/DTD/sodipodi-0.dtd"
   xmlns="http://www.w3.org/2000/svg"
   xmlns:svg="http://www.w3.org/2000/svg">
  <defs
     id="defs1" />
  <sodipodi:namedview
     id="namedview1"
     pagecolor="#505050"
     bordercolor="#ffffff"
     borderopacity="1"
     inkscape:showpageshadow="0"
     inkscape:pageopacity="0"
     inkscape:pagecheckerboard="1"
     inkscape:deskcolor="#505050"
     inkscape:lockguides="false"
     inkscape:export-bgcolor="#ffffffec"
     inkscape:zoom="1.4265879"
     inkscape:cx="-84.116792"
     inkscape:cy="162.97628"
     inkscape:window-width="1920"
     inkscape:window-height="1009"
     inkscape:window-x="-8"
     inkscape:window-y="-8"
     inkscape:window-maximized="1"
     inkscape:current-layer="svg1" />
  <g
     transform="matrix(0.01354135,0,0,-0.01354135,-42.315864,154.64558)"
     fill="none"
     stroke="none"
     id="jon-david-painting-svg-logo"
     inkscape:highlight-color="#aaaaaa">
    <path
       d="m 6772.34,10699.2 c -4.55,-2 -20.02,-6 -32.75,-9 -26.39,-6 -65.51,-35 -822.42,-598 -80.06,-60 -221.07,-164.97 -313.87,-233.97 -92.79,-69 -289.3,-215 -436.68,-325 -147.38,-110 -350.25,-261 -450.33,-335 -100.07,-74 -273.83,-204 -386.64,-287 -214.7,-160 -501.28,-374 -755.1,-562 -262.01,-195 -276.56,-206 -302.94,-233 -86.43,-89 -88.25,-234 -3.64,-329 49.12,-56 99.16,-77 170.12,-71 53.68,4 57.32,6 361.17,232 169.22,125 374.82,278 457.61,340 272.01,203 710.52,529 1162.66,865 128.28,95 297.49,221 374.82,279 147.38,110 322.96,240 614.09,457 95.52,70 191.95,142.97 214.7,160.97 100.07,80 178.31,102 249.27,70 29.11,-14 179.22,-121.97 473.07,-340.97 75.51,-56 201.97,-151 282.02,-210 80.06,-60 194.69,-145 254.73,-190 60.05,-45 236.54,-175 391.2,-290 155.57,-115 337.52,-250 404.84,-300 67.32,-50 240.17,-179 384.82,-286 143.75,-107 333.93,-248 423.08,-314 486.72,-362 609.53,-452 632.33,-463 31.8,-15 98.2,-15 144.6,0 50,16 110.1,83 128.3,143 21.8,70 19.1,113 -11.8,182 -30.1,66 -9.1,49 -650.52,525 -100.07,74 -321.14,238 -491.31,365 -170.13,126 -399.38,296 -509.46,378 -110.08,82 -267.47,199 -350.26,260 -82.79,61 -231.99,172 -332.06,247 -100.07,74 -251.09,185.97 -336.61,249.97 -84.61,63 -238.35,177 -341.16,253 -102.8,76 -250.18,186 -327.51,244 -149.2,112 -218.34,144 -268.37,126 z m 139.19,-2150.97 c -4.55,-4 -7.28,-128 -7.28,-276 v -268 h 644.11 c 368.45,0 676.85,-4 722.34,-10 84.61,-11 181.04,-44 262.92,-91 106.44,-62 201.05,-180 254.73,-319 54.58,-141 55.49,-156 60.04,-828 4.55,-627 -1.82,-820 -29.11,-937 -53.68,-227 -200.14,-397 -400.29,-464 -77.33,-25 -158.3,-41 -211.06,-41 h -39.12 v 140 c 0,154 -1.82,160 -63.68,160 -50.04,0 -93.71,-29 -159.21,-105 -85.52,-100 -110.99,-108 -241.09,-76 -135.55,33 -179.22,36 -241.99,16 -29.11,-9 -57.32,-20 -62.77,-25 -21.84,-18 -102.81,-40 -149.2,-40 -43.67,0 -60.05,6 -118.27,45 -74.6,49 -146.47,71 -193.78,57 l -30.02,-8 -5.46,-145 c -4.55,-110 -10.92,-160 -26.38,-214 -30.93,-105 -83.7,-197 -161.03,-281 l -69.14,-74 h 786.03 c 836.97,0 918.85,4 1075.33,50 430.31,126 722.34,469 806.95,949 32.75,187 38.21,330 33.66,986 -2.73,590 -4.55,637 -22.75,747 -95.52,573 -411.2,921 -939.77,1034 -65.5,14 -178.31,17 -772.38,21 -383.01,3 -698.69,1 -702.33,-3 z m -582.24,-1626 -2.73,-1623 H 4943.73 l -2.73,323 -1.82,322 h -491.26 v -363 c 0,-401 2.73,-429 57.31,-541 38.21,-79 112.81,-167 180.13,-211 33.66,-23 85.52,-45 141.92,-60 l 89.16,-25 h 1437.41 l 89.16,25 c 56.4,15 108.26,37 141.92,60 102.8,68 194.68,204 229.26,340 10.91,42 12.73,312 12.73,1710 v 1660 l -247.45,3 -248.36,2 z m 1129.91,968 c -22.74,-7 -51.86,-18 -65.5,-24 -42.76,-19 -104.62,-90 -126.46,-145 -35.48,-88 -28.2,-165 51.86,-607 37.3,-205 29.11,-306 -32.75,-405 -28.21,-45 -78.24,-89 -331.15,-290 -67.32,-53 -87.34,-75 -85.52,-90 2.73,-20 9.1,-20 662.3,-20 h 659.57 l 2.73,21 c 2.73,18 -30.93,48 -186.5,172 -103.71,82 -198.33,163 -210.15,179 -40.94,55 -66.41,123 -71.87,191 -6.37,85 -4.55,92 85.51,617 7.28,44 11.83,105 10.01,136 -8.19,128 -101.89,240 -223.8,268 -60.04,14 -86.42,13 -138.28,-3 z m 108.26,-231 c 35.48,-20 59.13,-77 52.77,-132 -4.55,-47 -23.66,-77 -62.78,-99 -21.83,-13 -29.11,-13 -51.85,1 -41.85,23 -55.5,52 -55.5,119 0,54 2.73,61 32.75,92 36.39,38 47.31,41 84.61,19 z m -649.56,-1416 c -3.64,-6 -2.73,-15 1.82,-20 4.55,-5 259.28,-8 626.82,-7 542.21,3 617.72,5 617.72,18 0,13 -76.42,15 -620.45,18 -441.23,1 -622.27,-1 -625.91,-9 z m -1.82,-95 c -2.73,-9 0,-20 7.27,-25 20.02,-14 1220.89,-12 1233.63,2 5.46,6 8.19,18 5.46,25 -3.64,12 -106.44,14 -622.27,14 -558.59,0 -618.63,-2 -624.09,-16 z m 254.73,-71 -257.46,-3 v -152 c 0,-83 1.82,-149 4.55,-146 2.73,3 22.74,61 44.57,129 l 40.03,124 536.76,3 536.75,2 27.3,-82 c 14.55,-46 31.84,-100 37.29,-120 22.75,-75 29.12,-51 26.39,99 l -2.73,148 h -368.45 c -202.88,0 -483.99,-1 -625,-2 z"
       style="vector-effect:non-scaling-stroke;fill:#fad702;stroke:none;stroke-width:0px"
       id="path1" />
  </g>
</svg>
